<?xml version="1.0" encoding="UTF-8"?>
<svg width="400" height="300" viewBox="0 0 400 300" fill="none" xmlns="http://www.w3.org/2000/svg">
  <!-- Background elements -->
  <rect width="400" height="300" fill="#F8F9FA" opacity="0.1"/>
  
  <!-- City skyline silhouette -->
  <path d="M50 200H350V220H50V200Z" fill="#EF4444" opacity="0.2"/>
  
  <rect x="70" y="150" width="20" height="50" fill="#EF4444" opacity="0.7"/>
  <rect x="100" y="170" width="20" height="30" fill="#EF4444" opacity="0.7"/>
  <rect x="130" y="130" width="30" height="70" fill="#EF4444" opacity="0.7"/>
  <path d="M130 130L145 110L160 130H130Z" fill="#EF4444" opacity="0.7"/>
  
  <rect x="170" y="160" width="20" height="40" fill="#EF4444" opacity="0.7"/>
  <rect x="200" y="120" width="40" height="80" fill="#EF4444" opacity="0.7"/>
  <rect x="205" y="130" width="30" height="10" fill="#F8F9FA" opacity="0.8"/>
  <rect x="205" y="150" width="30" height="10" fill="#F8F9FA" opacity="0.8"/>
  <rect x="205" y="170" width="30" height="10" fill="#F8F9FA" opacity="0.8"/>
  
  <rect x="250" y="140" width="30" height="60" fill="#EF4444" opacity="0.7"/>
  <path d="M250 140L265 120L280 140H250Z" fill="#EF4444" opacity="0.7"/>
  
  <rect x="290" y="160" width="20" height="40" fill="#EF4444" opacity="0.7"/>
  <rect x="320" y="180" width="15" height="20" fill="#EF4444" opacity="0.7"/>
  
  <!-- Power lines -->
  <line x1="80" y1="150" x2="80" y2="130" stroke="#EF4444" stroke-width="2"/>
  <line x1="60" y1="130" x2="100" y2="130" stroke="#EF4444" stroke-width="2"/>
  <line x1="145" y1="110" x2="145" y2="90" stroke="#EF4444" stroke-width="2"/>
  <line x1="125" y1="90" x2="165" y2="90" stroke="#EF4444" stroke-width="2"/>
  <line x1="265" y1="120" x2="265" y2="100" stroke="#EF4444" stroke-width="2"/>
  <line x1="245" y1="100" x2="285" y2="100" stroke="#EF4444" stroke-width="2"/>
  
  <!-- Shield over infrastructure -->
  <path d="M200 50L140 70V130C140 160 170 180 200 190C230 180 260 160 260 130V70L200 50Z" fill="#EF4444" opacity="0.2" stroke="#EF4444" stroke-width="2"/>
  
  <!-- Lock symbol -->
  <rect x="180" y="80" width="40" height="30" rx="5" fill="#EF4444" opacity="0.7"/>
  <rect x="190" y="70" width="20" height="20" rx="10" fill="#EF4444" opacity="0.7"/>
  <circle cx="200" cy="95" r="5" fill="#F8F9FA"/>
  <line x1="200" y1="95" x2="200" y2="100" stroke="#F8F9FA" stroke-width="2"/>
  
  <!-- Network connections -->
  <line x1="80" y1="150" x2="145" y2="110" stroke="#FCA5A5" stroke-width="1" stroke-dasharray="5 5"/>
  <line x1="145" y1="110" x2="220" y2="120" stroke="#FCA5A5" stroke-width="1" stroke-dasharray="5 5"/>
  <line x1="220" y1="120" x2="265" y2="120" stroke="#FCA5A5" stroke-width="1" stroke-dasharray="5 5"/>
  <line x1="265" y1="120" x2="300" y2="160" stroke="#FCA5A5" stroke-width="1" stroke-dasharray="5 5"/>
  
  <!-- Binary code background -->
  <text x="50" y="50" fill="#EF4444" opacity="0.3" font-family="monospace" font-size="10">10110101</text>
  <text x="50" y="65" fill="#EF4444" opacity="0.3" font-family="monospace" font-size="10">01001010</text>
  
  <text x="300" y="50" fill="#EF4444" opacity="0.3" font-family="monospace" font-size="10">10110101</text>
  <text x="300" y="65" fill="#EF4444" opacity="0.3" font-family="monospace" font-size="10">01001010</text>
  
  <!-- Alert symbols -->
  <path d="M100 240L110 260H90L100 240Z" fill="#EF4444"/>
  <circle cx="100" cy="255" r="1" fill="white"/>
  <line x1="100" y1="245" x2="100" y2="252" stroke="white" stroke-width="1"/>
  
  <path d="M300 240L310 260H290L300 240Z" fill="#EF4444"/>
  <circle cx="300" cy="255" r="1" fill="white"/>
  <line x1="300" y1="245" x2="300" y2="252" stroke="white" stroke-width="1"/>
</svg> 