<?xml version="1.0" encoding="UTF-8"?>
<svg width="400" height="300" viewBox="0 0 400 300" fill="none" xmlns="http://www.w3.org/2000/svg">
  <!-- Background elements with India flag colors -->
  <rect width="400" height="300" fill="#F8F9FA" opacity="0.1"/>
  <path d="M0 0H400V100H0V0Z" fill="#FF9933" opacity="0.05"/>
  <path d="M0 100H400V200H0V100Z" fill="#FFFFFF" opacity="0.05"/>
  <path d="M0 200H400V300H0V200Z" fill="#138808" opacity="0.05"/>
  
  <!-- India map silhouette with animation -->
  <path d="M220 80C225 75 230 70 235 75C240 80 245 75 250 80C255 85 260 80 265 85C270 90 275 85 280 90C285 95 290 90 295 95V170C290 165 285 170 280 165C275 160 270 165 265 170C260 175 255 170 250 165C245 160 240 165 235 170C230 175 225 170 220 165V80Z" fill="#DB2777" opacity="0.1">
    <animate attributeName="opacity" values="0.1;0.2;0.1" dur="5s" repeatCount="indefinite"/>
  </path>
  
  <!-- Ashoka Chakra (simplified) -->
  <circle cx="200" cy="50" r="15" fill="#000080" opacity="0.2"/>
  <circle cx="200" cy="50" r="12" stroke="#000080" stroke-width="1" fill="none">
    <animate attributeName="r" values="12;13;12" dur="4s" repeatCount="indefinite"/>
  </circle>
  <path d="M200 38L200 62" stroke="#000080" stroke-width="1"/>
  <path d="M188 50L212 50" stroke="#000080" stroke-width="1"/>
  <path d="M191 41L209 59" stroke="#000080" stroke-width="1"/>
  <path d="M191 59L209 41" stroke="#000080" stroke-width="1"/>
  
  <!-- Enhanced circle of people with animation -->
  <circle cx="200" cy="150" r="80" fill="#DB2777" opacity="0.1" stroke="#DB2777" stroke-width="2">
    <animate attributeName="opacity" values="0.1;0.15;0.1" dur="4s" repeatCount="indefinite"/>
  </circle>
  
  <!-- People silhouettes around circle with diverse attributes and animations -->
  <!-- Person 1 - Urban professional with smartphone -->
  <circle cx="200" cy="70" r="15" fill="#DB2777" opacity="0.7"/>
  <path d="M185 100C185 85 195 80 200 80C205 80 215 85 215 100" stroke="#DB2777" stroke-width="3"/>
  <rect x="195" y="55" width="10" height="5" rx="2" fill="#F8F9FA" opacity="0.8"/> <!-- glasses -->
  <!-- Smartphone with animation -->
  <rect x="195" y="85" width="10" height="15" rx="1" fill="#DB2777" opacity="0.6"/>
  <rect x="196" y="87" width="8" height="11" fill="#F8F9FA"/>
  <path d="M198 92L202 92" stroke="#DB2777" stroke-width="0.5">
    <animate attributeName="y" values="92;94;92" dur="2s" repeatCount="indefinite"/>
  </path>
  
  <!-- Person 2 - Rural farmer with traditional attire -->
  <circle cx="280" cy="150" r="15" fill="#DB2777" opacity="0.7"/>
  <path d="M265 180C265 165 275 160 280 160C285 160 295 165 295 180" stroke="#DB2777" stroke-width="3"/>
  <path d="M270 140L290 140" stroke="#DB2777" stroke-width="2"/> <!-- turban/pagdi -->
  <path d="M270 140C270 135 290 135 290 140" stroke="#DB2777" stroke-width="2"/>
  <!-- Farming tool -->
  <path d="M290 155L300 145" stroke="#DB2777" stroke-width="2">
    <animate attributeName="transform" attributeType="XML" type="rotate" from="0 290 155" to="10 290 155" dur="3s" repeatCount="indefinite" additive="sum"/>
  </path>
  <!-- Tablet showing agricultural info -->
  <rect x="275" y="165" width="10" height="8" rx="1" fill="#DB2777" opacity="0.6"/>
  <rect x="276" y="166" width="8" height="6" fill="#F8F9FA"/>
  
  <!-- Person 3 - Elderly with traditional clothing -->
  <circle cx="200" cy="230" r="15" fill="#DB2777" opacity="0.7"/>
  <path d="M185 260C185 245 195 240 200 240C205 240 215 245 215 260" stroke="#DB2777" stroke-width="3"/>
  <path d="M190 225C190 220 210 220 210 225" stroke="#DB2777" stroke-width="1.5"/> <!-- glasses -->
  <!-- Traditional shawl -->
  <path d="M185 235C185 230 215 230 215 235" stroke="#DB2777" stroke-width="1.5"/>
  <!-- Simple phone -->
  <rect x="195" y="245" width="10" height="12" rx="1" fill="#DB2777" opacity="0.6"/>
  <rect x="197" y="247" width="6" height="8" fill="#F8F9FA"/>
  <circle cx="200" cy="257" r="1" fill="#DB2777">
    <animate attributeName="opacity" values="0.6;1;0.6" dur="1.5s" repeatCount="indefinite"/>
  </circle>
  
  <!-- Person 4 - Person with disability using assistive technology -->
  <circle cx="120" cy="150" r="15" fill="#DB2777" opacity="0.7"/>
  <path d="M105 180C105 165 115 160 120 160C125 160 135 165 135 180" stroke="#DB2777" stroke-width="3"/>
  <path d="M105 170L135 170" stroke="#DB2777" stroke-width="2"/> <!-- wheelchair indicator -->
  <path d="M110 175L130 175" stroke="#DB2777" stroke-width="2"/>
  <!-- Assistive device -->
  <rect x="115" y="140" width="10" height="15" rx="1" fill="#DB2777" opacity="0.6"/>
  <rect x="116" y="142" width="8" height="11" fill="#F8F9FA"/>
  <path d="M118 147L122 147" stroke="#DB2777" stroke-width="0.5">
    <animate attributeName="stroke-width" values="0.5;1;0.5" dur="2s" repeatCount="indefinite"/>
  </path>
  
  <!-- Person 5 - Student (additional) -->
  <circle cx="150" cy="100" r="12" fill="#DB2777" opacity="0.7"/>
  <path d="M140 125C140 115 145 110 150 110C155 110 160 115 160 125" stroke="#DB2777" stroke-width="2"/>
  <!-- Tablet/book -->
  <rect x="145" y="95" width="10" height="8" rx="1" fill="#DB2777" opacity="0.6"/>
  <rect x="146" y="96" width="8" height="6" fill="#F8F9FA"/>
  <path d="M148 99L152 99" stroke="#DB2777" stroke-width="0.5">
    <animate attributeName="y" values="99;100;99" dur="3s" repeatCount="indefinite"/>
  </path>
  
  <!-- Person 6 - Tech professional (additional) -->
  <circle cx="250" cy="100" r="12" fill="#DB2777" opacity="0.7"/>
  <path d="M240 125C240 115 245 110 250 110C255 110 260 115 260 125" stroke="#DB2777" stroke-width="2"/>
  <!-- Laptop -->
  <rect x="245" y="95" width="10" height="8" rx="1" fill="#DB2777" opacity="0.6"/>
  <rect x="246" y="96" width="8" height="5" fill="#F8F9FA"/>
  <path d="M248 98L252 98" stroke="#DB2777" stroke-width="0.5">
    <animate attributeName="stroke-width" values="0.5;1;0.5" dur="1.5s" repeatCount="indefinite"/>
  </path>
  
  <!-- Connection lines with animation -->
  <line x1="200" y1="85" x2="200" y2="150" stroke="#DB2777" stroke-width="2" stroke-dasharray="5 5">
    <animate attributeName="stroke-opacity" values="0.7;1;0.7" dur="3s" repeatCount="indefinite"/>
  </line>
  <line x1="265" y1="150" x2="200" y2="150" stroke="#DB2777" stroke-width="2" stroke-dasharray="5 5">
    <animate attributeName="stroke-opacity" values="0.7;1;0.7" dur="3.5s" repeatCount="indefinite"/>
  </line>
  <line x1="200" y1="215" x2="200" y2="150" stroke="#DB2777" stroke-width="2" stroke-dasharray="5 5">
    <animate attributeName="stroke-opacity" values="0.7;1;0.7" dur="4s" repeatCount="indefinite"/>
  </line>
  <line x1="135" y1="150" x2="200" y2="150" stroke="#DB2777" stroke-width="2" stroke-dasharray="5 5">
    <animate attributeName="stroke-opacity" values="0.7;1;0.7" dur="3.2s" repeatCount="indefinite"/>
  </line>
  <line x1="150" y1="110" x2="200" y2="150" stroke="#DB2777" stroke-width="1.5" stroke-dasharray="5 5">
    <animate attributeName="stroke-opacity" values="0.7;1;0.7" dur="2.8s" repeatCount="indefinite"/>
  </line>
  <line x1="250" y1="110" x2="200" y2="150" stroke="#DB2777" stroke-width="1.5" stroke-dasharray="5 5">
    <animate attributeName="stroke-opacity" values="0.7;1;0.7" dur="3.3s" repeatCount="indefinite"/>
  </line>
  
  <!-- Digital devices with accessibility features and animation -->
  <rect x="190" y="140" width="20" height="20" rx="3" fill="#DB2777" opacity="0.8">
    <animate attributeName="opacity" values="0.8;0.9;0.8" dur="3s" repeatCount="indefinite"/>
  </rect>
  <rect x="193" y="143" width="14" height="10" fill="#F8F9FA"/>
  <rect x="195" y="155" width="10" height="2" rx="1" fill="#F8F9FA"/>
  <circle cx="200" cy="148" r="3" fill="#DB2777" opacity="0.5">
    <animate attributeName="r" values="3;3.5;3" dur="2s" repeatCount="indefinite"/>
  </circle>
  
  <!-- Data flow animations -->
  <circle cx="200" cy="120" r="2" fill="#DB2777" opacity="0.8">
    <animate attributeName="cy" values="120;150;120" dur="3s" repeatCount="indefinite"/>
    <animate attributeName="opacity" values="0.8;0;0.8" dur="3s" repeatCount="indefinite"/>
  </circle>
  <circle cx="230" cy="150" r="2" fill="#DB2777" opacity="0.8">
    <animate attributeName="cx" values="230;200;230" dur="3.5s" repeatCount="indefinite"/>
    <animate attributeName="opacity" values="0.8;0;0.8" dur="3.5s" repeatCount="indefinite"/>
  </circle>
  <circle cx="200" cy="180" r="2" fill="#DB2777" opacity="0.8">
    <animate attributeName="cy" values="180;150;180" dur="4s" repeatCount="indefinite"/>
    <animate attributeName="opacity" values="0.8;0;0.8" dur="4s" repeatCount="indefinite"/>
  </circle>
  <circle cx="170" cy="150" r="2" fill="#DB2777" opacity="0.8">
    <animate attributeName="cx" values="170;200;170" dur="3.2s" repeatCount="indefinite"/>
    <animate attributeName="opacity" values="0.8;0;0.8" dur="3.2s" repeatCount="indefinite"/>
  </circle>
  
  <!-- Binary code background with animation -->
  <text x="50" y="50" fill="#DB2777" opacity="0.3" font-family="monospace" font-size="10">10110101
    <animate attributeName="opacity" values="0.3;0.5;0.3" dur="5s" repeatCount="indefinite"/>
  </text>
  <text x="50" y="65" fill="#DB2777" opacity="0.3" font-family="monospace" font-size="10">01001010
    <animate attributeName="opacity" values="0.3;0.5;0.3" dur="4s" repeatCount="indefinite"/>
  </text>
  
  <text x="300" y="50" fill="#DB2777" opacity="0.3" font-family="monospace" font-size="10">10110101
    <animate attributeName="opacity" values="0.3;0.5;0.3" dur="4.5s" repeatCount="indefinite"/>
  </text>
  <text x="300" y="65" fill="#DB2777" opacity="0.3" font-family="monospace" font-size="10">01001010
    <animate attributeName="opacity" values="0.3;0.5;0.3" dur="5s" repeatCount="indefinite"/>
  </text>
  
  <!-- Enhanced accessibility symbols with animation -->
  <circle cx="80" cy="80" r="15" fill="none" stroke="#DB2777" stroke-width="2">
    <animate attributeName="stroke-width" values="2;2.5;2" dur="3s" repeatCount="indefinite"/>
  </circle>
  <circle cx="80" cy="75" r="5" fill="#DB2777">
    <animate attributeName="opacity" values="0.7;1;0.7" dur="3s" repeatCount="indefinite"/>
  </circle>
  <path d="M75 85L80 95L85 85" stroke="#DB2777" stroke-width="2"/>
  <line x1="75" y1="90" x2="85" y2="90" stroke="#DB2777" stroke-width="2"/>
  
  <circle cx="320" cy="80" r="15" fill="none" stroke="#DB2777" stroke-width="2">
    <animate attributeName="stroke-width" values="2;2.5;2" dur="3.5s" repeatCount="indefinite"/>
  </circle>
  <path d="M315 80L320 85L325 75" stroke="#DB2777" stroke-width="2"/> <!-- sign language symbol -->
  <path d="M315 85L325 85" stroke="#DB2777" stroke-width="2">
    <animate attributeName="stroke-width" values="2;2.5;2" dur="2.5s" repeatCount="indefinite"/>
  </path>
  
  <!-- Outer connection ring with diverse symbols and animation -->
  <circle cx="200" cy="150" r="100" stroke="#DB2777" stroke-width="1" stroke-dasharray="5 5" fill="none">
    <animate attributeName="r" values="100;102;100" dur="10s" repeatCount="indefinite"/>
  </circle>
  
  <!-- Diversity symbols around outer ring with animation -->
  <circle cx="200" cy="50" r="5" fill="#DB2777" opacity="0.6">
    <animate attributeName="opacity" values="0.6;0.8;0.6" dur="3s" repeatCount="indefinite"/>
  </circle>
  <circle cx="300" cy="150" r="5" fill="#DB2777" opacity="0.6">
    <animate attributeName="opacity" values="0.6;0.8;0.6" dur="3.5s" repeatCount="indefinite"/>
  </circle>
  <circle cx="200" cy="250" r="5" fill="#DB2777" opacity="0.6">
    <animate attributeName="opacity" values="0.6;0.8;0.6" dur="4s" repeatCount="indefinite"/>
  </circle>
  <circle cx="100" cy="150" r="5" fill="#DB2777" opacity="0.6">
    <animate attributeName="opacity" values="0.6;0.8;0.6" dur="3.2s" repeatCount="indefinite"/>
  </circle>
  <circle cx="270" cy="80" r="5" fill="#DB2777" opacity="0.6">
    <animate attributeName="opacity" values="0.6;0.8;0.6" dur="2.8s" repeatCount="indefinite"/>
  </circle>
  <circle cx="270" cy="220" r="5" fill="#DB2777" opacity="0.6">
    <animate attributeName="opacity" values="0.6;0.8;0.6" dur="3.3s" repeatCount="indefinite"/>
  </circle>
  <circle cx="130" cy="220" r="5" fill="#DB2777" opacity="0.6">
    <animate attributeName="opacity" values="0.6;0.8;0.6" dur="2.5s" repeatCount="indefinite"/>
  </circle>
  <circle cx="130" cy="80" r="5" fill="#DB2777" opacity="0.6">
    <animate attributeName="opacity" values="0.6;0.8;0.6" dur="3.7s" repeatCount="indefinite"/>
  </circle>
  
  <!-- Text in Hindi (Digital Inclusion) -->
  <text x="50" y="30" fill="#DB2777" opacity="0.5" font-family="Arial" font-size="8">डिजिटल समावेश</text>
  <text x="320" y="30" fill="#DB2777" opacity="0.5" font-family="Arial" font-size="8">भारत</text>
  
  <!-- Traditional Indian pattern elements -->
  <path d="M50 270C55 265 60 270 65 265C70 270 75 265 80 270" stroke="#DB2777" stroke-width="1" opacity="0.5"/>
  <path d="M320 270C325 265 330 270 335 265C340 270 345 265 350 270" stroke="#DB2777" stroke-width="1" opacity="0.5"/>
</svg> 