<svg width="120" height="40" viewBox="0 0 120 40" xmlns="http://www.w3.org/2000/svg">
  <!-- Definitions for gradients and effects -->
  <defs>
    <!-- Burgundy gradient for background -->
    <linearGradient id="bgGradient" x1="0%" y1="0%" x2="100%" y2="100%">
      <stop offset="0%" stop-color="#800020" />
      <stop offset="100%" stop-color="#600010" />
    </linearGradient>
    
    <!-- Text gradient -->
    <linearGradient id="textGradient" x1="0%" y1="0%" x2="100%" y2="100%">
      <stop offset="0%" stop-color="#ffffff" />
      <stop offset="100%" stop-color="#f0f0f0" />
    </linearGradient>
    
    <!-- Glow effect -->
    <filter id="glow" x="-20%" y="-20%" width="140%" height="140%">
      <feGaussianBlur stdDeviation="1" result="blur" />
      <feComposite in="SourceGraphic" in2="blur" operator="over" />
    </filter>
    
    <!-- Digital circuit pattern -->
    <pattern id="circuitPattern" patternUnits="userSpaceOnUse" width="40" height="40" patternTransform="scale(0.5)">
      <path d="M0,20 h10 M30,20 h10 M20,0 v10 M20,30 v10" stroke="white" stroke-width="0.5" opacity="0.2" />
      <circle cx="20" cy="20" r="2" fill="white" opacity="0.2" />
      <circle cx="0" cy="0" r="1" fill="white" opacity="0.2" />
      <circle cx="0" cy="40" r="1" fill="white" opacity="0.2" />
      <circle cx="40" cy="0" r="1" fill="white" opacity="0.2" />
      <circle cx="40" cy="40" r="1" fill="white" opacity="0.2" />
    </pattern>
    
    <!-- Animated pulse effect -->
    <radialGradient id="pulseGradient" cx="50%" cy="50%" r="50%" fx="50%" fy="50%">
      <stop offset="0%" stop-color="white" stop-opacity="0.3">
        <animate attributeName="stop-opacity" values="0.3;0.1;0.3" dur="3s" repeatCount="indefinite" />
      </stop>
      <stop offset="100%" stop-color="white" stop-opacity="0">
        <animate attributeName="stop-opacity" values="0;0.05;0" dur="3s" repeatCount="indefinite" />
      </stop>
    </radialGradient>
  </defs>
  
  <!-- Background with modern shape -->
  <path d="M0,0 H100 Q120,0 120,20 V40 H20 Q0,40 0,20 Z" fill="url(#bgGradient)" />
  
  <!-- Circuit pattern overlay -->
  <path d="M0,0 H100 Q120,0 120,20 V40 H20 Q0,40 0,20 Z" fill="url(#circuitPattern)" opacity="0.4" />
  
  <!-- Decorative elements -->
  <circle cx="95" cy="20" r="15" fill="url(#pulseGradient)" />
  
  <!-- Main logo text: "iwf" in Audiowide font lowercase with fallbacks -->
  <text x="60" y="26" font-family="Audiowide, monospace, sans-serif" font-size="22" font-weight="normal" fill="url(#textGradient)" text-anchor="middle" letter-spacing="1.5" filter="url(#glow)">iwf</text>
  
  <!-- Tech element in corner -->
  <g transform="translate(95, 20)">
    <circle cx="0" cy="0" r="8" fill="none" stroke="white" stroke-width="0.5" opacity="0.7">
      <animate attributeName="r" values="7;8;7" dur="3s" repeatCount="indefinite" />
    </circle>
    <circle cx="0" cy="0" r="4" fill="none" stroke="white" stroke-width="0.5" opacity="0.7">
      <animate attributeName="r" values="3;4;3" dur="3s" begin="0.5s" repeatCount="indefinite" />
    </circle>
    <line x1="0" y1="-8" x2="0" y2="-5" stroke="white" stroke-width="0.5" opacity="0.7" />
    <line x1="0" y1="5" x2="0" y2="8" stroke="white" stroke-width="0.5" opacity="0.7" />
    <line x1="-8" y1="0" x2="-5" y2="0" stroke="white" stroke-width="0.5" opacity="0.7" />
    <line x1="5" y1="0" x2="8" y2="0" stroke="white" stroke-width="0.5" opacity="0.7" />
  </g>
  
  <!-- Digital circuit lines -->
  <path d="M20,10 L40,10 Q45,10 45,15 L45,20" stroke="white" stroke-width="0.5" fill="none" opacity="0.3" />
  <path d="M75,20 L75,15 Q75,10 80,10 L100,10" stroke="white" stroke-width="0.5" fill="none" opacity="0.3" />
</svg> 