<?xml version="1.0" encoding="UTF-8"?>
<svg width="60" height="40" viewBox="0 0 60 40" fill="none" xmlns="http://www.w3.org/2000/svg">
  <rect width="60" height="40" rx="4" fill="white"/>
  <path d="M24.6145 14.5H20.3855C19.6218 14.5 19 15.1218 19 15.8855V24.1145C19 24.8782 19.6218 25.5 20.3855 25.5H24.6145C25.3782 25.5 26 24.8782 26 24.1145V15.8855C26 15.1218 25.3782 14.5 24.6145 14.5Z" fill="#F79E1B"/>
  <path d="M39.6145 14.5H35.3855C34.6218 14.5 34 15.1218 34 15.8855V24.1145C34 24.8782 34.6218 25.5 35.3855 25.5H39.6145C40.3782 25.5 41 24.8782 41 24.1145V15.8855C41 15.1218 40.3782 14.5 39.6145 14.5Z" fill="#EB001B"/>
  <path d="M30 14.5C27.7909 14.5 26 16.2909 26 18.5C26 20.7091 27.7909 22.5 30 22.5C32.2091 22.5 34 20.7091 34 18.5C34 16.2909 32.2091 14.5 30 14.5Z" fill="#FF5F00"/>
  <path d="M30 25.5C32.2091 25.5 34 23.7091 34 21.5C34 19.2909 32.2091 17.5 30 17.5C27.7909 17.5 26 19.2909 26 21.5C26 23.7091 27.7909 25.5 30 25.5Z" fill="#F79E1B"/>
</svg> 